<svg width="182" height="182" viewBox="0 0 182 182" fill="none" xmlns="http://www.w3.org/2000/svg">
<circle cx="91" cy="91" r="89" fill="white"/>
<path d="M31.6719 85H38.8398V62.5781H46.5938V56.8164H23.8984V62.5781H31.6719V85ZM55.0898 85.4492C56.7956 85.4492 58.2474 85.2344 59.4453 84.8047C60.6562 84.362 61.6523 83.7891 62.4336 83.0859C63.2279 82.3828 63.8464 81.6341 64.2891 80.8398C64.7318 80.0326 65.0312 79.2578 65.1875 78.5156L65.2461 78.2812H58.9961L58.9766 78.3594C58.8724 78.6589 58.6641 78.9779 58.3516 79.3164C58.0521 79.6549 57.6419 79.9414 57.1211 80.1758C56.6003 80.4102 55.9688 80.5273 55.2266 80.5273C54.3672 80.5273 53.625 80.3385 53 79.9609C52.388 79.5703 51.9128 79.0169 51.5742 78.3008C51.2487 77.5846 51.0859 76.7253 51.0859 75.7227V73.0273C51.0859 72.0117 51.2487 71.1458 51.5742 70.4297C51.8997 69.7005 52.3555 69.1471 52.9414 68.7695C53.5404 68.3919 54.2305 68.2031 55.0117 68.2031C55.793 68.2031 56.4766 68.3919 57.0625 68.7695C57.6484 69.1341 58.1042 69.681 58.4297 70.4102C58.7552 71.1263 58.918 71.9987 58.918 73.0273V75.7031L62.1406 71.8555H47.6875V75.957H65.3828V73.9258C65.3828 71.7773 64.9531 69.9089 64.0938 68.3203C63.2344 66.7188 62.0169 65.4818 60.4414 64.6094C58.8659 63.724 57.0039 63.2812 54.8555 63.2812C52.707 63.2812 50.8385 63.7305 49.25 64.6289C47.6745 65.5273 46.4505 66.8034 45.5781 68.457C44.7188 70.1107 44.2891 72.0768 44.2891 74.3555V74.375C44.2891 76.6667 44.7188 78.6393 45.5781 80.293C46.4505 81.9466 47.694 83.2227 49.3086 84.1211C50.9232 85.0065 52.8503 85.4492 55.0898 85.4492ZM77.4141 85.4492C79.3672 85.4492 81.0794 85.1562 82.5508 84.5703C84.0221 83.9844 85.1745 83.151 86.0078 82.0703C86.8411 80.9896 87.2578 79.7201 87.2578 78.2617V78.2422C87.2578 76.6536 86.7435 75.3971 85.7148 74.4727C84.6992 73.5352 83.0521 72.8451 80.7734 72.4023L77.043 71.6602C76.0273 71.4648 75.3307 71.2174 74.9531 70.918C74.5755 70.6185 74.3867 70.2409 74.3867 69.7852V69.7656C74.3867 69.388 74.4974 69.069 74.7188 68.8086C74.9531 68.5352 75.2786 68.3268 75.6953 68.1836C76.112 68.0273 76.6003 67.9492 77.1602 67.9492C78.1237 67.9492 78.8724 68.1771 79.4062 68.6328C79.9401 69.0755 80.2396 69.6094 80.3047 70.2344L80.3242 70.3906H86.6523V70.2344C86.6393 68.9583 86.2682 67.7995 85.5391 66.7578C84.8099 65.7031 83.7422 64.8633 82.3359 64.2383C80.9427 63.6003 79.2174 63.2812 77.1602 63.2812C75.2331 63.2812 73.5534 63.5612 72.1211 64.1211C70.7018 64.681 69.6081 65.4753 68.8398 66.5039C68.0846 67.5195 67.707 68.737 67.707 70.1562V70.1758C67.707 71.7904 68.2409 73.1315 69.3086 74.1992C70.3763 75.2539 71.9518 75.9896 74.0352 76.4062L77.7852 77.1289C78.7357 77.3242 79.3997 77.5716 79.7773 77.8711C80.168 78.1576 80.3633 78.5352 80.3633 79.0039V79.0234C80.3633 79.375 80.2461 79.6875 80.0117 79.9609C79.7773 80.2214 79.4388 80.4232 78.9961 80.5664C78.5534 80.7096 78.026 80.7812 77.4141 80.7812C76.4115 80.7812 75.6237 80.5794 75.0508 80.1758C74.4909 79.7721 74.1263 79.2122 73.957 78.4961L73.918 78.3398H67.1992L67.2188 78.5156C67.375 79.8958 67.8568 81.1068 68.6641 82.1484C69.4714 83.1901 70.6042 84.0039 72.0625 84.5898C73.5208 85.1628 75.3047 85.4492 77.4141 85.4492ZM98.9375 85.4492C99.6667 85.4492 100.298 85.4232 100.832 85.3711C101.366 85.319 101.822 85.2604 102.199 85.1953V80.2734C102.004 80.2995 101.809 80.3255 101.613 80.3516C101.418 80.3646 101.177 80.3711 100.891 80.3711C100.057 80.3711 99.4323 80.1823 99.0156 79.8047C98.599 79.4141 98.3906 78.763 98.3906 77.8516V68.8086H102.199V63.7305H98.3906V58.8281H91.4375V63.7305H88.5469V68.8086H91.4375V78.7891C91.4375 81.1849 92.043 82.8971 93.2539 83.9258C94.4779 84.9414 96.3724 85.4492 98.9375 85.4492ZM31.6719 125H38.8398V102.578H46.5938V96.8164H23.8984V102.578H31.6719V125ZM55.168 125.449C57.4206 125.449 59.3542 125.02 60.9688 124.16C62.5964 123.288 63.8529 122.025 64.7383 120.371C65.6237 118.717 66.0664 116.719 66.0664 114.375V114.336C66.0664 112.018 65.6172 110.039 64.7188 108.398C63.8203 106.745 62.5573 105.482 60.9297 104.609C59.3021 103.724 57.3815 103.281 55.168 103.281C52.9674 103.281 51.0534 103.724 49.4258 104.609C47.7982 105.482 46.5352 106.751 45.6367 108.418C44.7383 110.072 44.2891 112.044 44.2891 114.336V114.375C44.2891 116.706 44.7253 118.698 45.5977 120.352C46.4831 122.005 47.7396 123.268 49.3672 124.141C50.9948 125.013 52.9284 125.449 55.168 125.449ZM55.1875 120.195C54.3932 120.195 53.7031 119.974 53.1172 119.531C52.5443 119.076 52.1016 118.411 51.7891 117.539C51.4766 116.667 51.3203 115.612 51.3203 114.375V114.336C51.3203 113.112 51.4766 112.07 51.7891 111.211C52.1146 110.339 52.5638 109.674 53.1367 109.219C53.7227 108.763 54.3997 108.535 55.168 108.535C55.9492 108.535 56.6263 108.763 57.1992 109.219C57.7721 109.674 58.2148 110.339 58.5273 111.211C58.8529 112.07 59.0156 113.112 59.0156 114.336V114.375C59.0156 115.612 58.8594 116.667 58.5469 117.539C58.2474 118.411 57.8112 119.076 57.2383 119.531C56.6654 119.974 55.9818 120.195 55.1875 120.195ZM68.918 125H75.832V96.8164H68.918V125ZM82.2578 125H90.2461L80.793 110.547L76.4766 115.996L82.2578 125ZM75.1875 119.258L78.3125 115.488H80.1094L89.7773 103.73H82.0625L75.9688 111.797H75.1875V119.258ZM100.598 125.449C102.303 125.449 103.755 125.234 104.953 124.805C106.164 124.362 107.16 123.789 107.941 123.086C108.736 122.383 109.354 121.634 109.797 120.84C110.24 120.033 110.539 119.258 110.695 118.516L110.754 118.281H104.504L104.484 118.359C104.38 118.659 104.172 118.978 103.859 119.316C103.56 119.655 103.15 119.941 102.629 120.176C102.108 120.41 101.477 120.527 100.734 120.527C99.875 120.527 99.1328 120.339 98.5078 119.961C97.8958 119.57 97.4206 119.017 97.082 118.301C96.7565 117.585 96.5938 116.725 96.5938 115.723V113.027C96.5938 112.012 96.7565 111.146 97.082 110.43C97.4076 109.701 97.8633 109.147 98.4492 108.77C99.0482 108.392 99.7383 108.203 100.52 108.203C101.301 108.203 101.984 108.392 102.57 108.77C103.156 109.134 103.612 109.681 103.938 110.41C104.263 111.126 104.426 111.999 104.426 113.027V115.703L107.648 111.855H93.1953V115.957H110.891V113.926C110.891 111.777 110.461 109.909 109.602 108.32C108.742 106.719 107.525 105.482 105.949 104.609C104.374 103.724 102.512 103.281 100.363 103.281C98.2148 103.281 96.3464 103.73 94.7578 104.629C93.1823 105.527 91.9583 106.803 91.0859 108.457C90.2266 110.111 89.7969 112.077 89.7969 114.355V114.375C89.7969 116.667 90.2266 118.639 91.0859 120.293C91.9583 121.947 93.2018 123.223 94.8164 124.121C96.431 125.007 98.3581 125.449 100.598 125.449ZM113.566 125H120.5V112.93C120.5 112.135 120.643 111.439 120.93 110.84C121.229 110.241 121.646 109.772 122.18 109.434C122.714 109.095 123.345 108.926 124.074 108.926C125.207 108.926 126.06 109.271 126.633 109.961C127.206 110.638 127.492 111.582 127.492 112.793V125H134.426V111.309C134.426 108.783 133.788 106.816 132.512 105.41C131.249 103.991 129.445 103.281 127.102 103.281C125.5 103.281 124.159 103.646 123.078 104.375C121.997 105.104 121.184 106.139 120.637 107.48H120.5V103.73H113.566V125ZM147.023 125.449C148.977 125.449 150.689 125.156 152.16 124.57C153.632 123.984 154.784 123.151 155.617 122.07C156.451 120.99 156.867 119.72 156.867 118.262V118.242C156.867 116.654 156.353 115.397 155.324 114.473C154.309 113.535 152.661 112.845 150.383 112.402L146.652 111.66C145.637 111.465 144.94 111.217 144.562 110.918C144.185 110.618 143.996 110.241 143.996 109.785V109.766C143.996 109.388 144.107 109.069 144.328 108.809C144.562 108.535 144.888 108.327 145.305 108.184C145.721 108.027 146.21 107.949 146.77 107.949C147.733 107.949 148.482 108.177 149.016 108.633C149.549 109.076 149.849 109.609 149.914 110.234L149.934 110.391H156.262V110.234C156.249 108.958 155.878 107.799 155.148 106.758C154.419 105.703 153.352 104.863 151.945 104.238C150.552 103.6 148.827 103.281 146.77 103.281C144.842 103.281 143.163 103.561 141.73 104.121C140.311 104.681 139.217 105.475 138.449 106.504C137.694 107.52 137.316 108.737 137.316 110.156V110.176C137.316 111.79 137.85 113.132 138.918 114.199C139.986 115.254 141.561 115.99 143.645 116.406L147.395 117.129C148.345 117.324 149.009 117.572 149.387 117.871C149.777 118.158 149.973 118.535 149.973 119.004V119.023C149.973 119.375 149.855 119.688 149.621 119.961C149.387 120.221 149.048 120.423 148.605 120.566C148.163 120.71 147.635 120.781 147.023 120.781C146.021 120.781 145.233 120.579 144.66 120.176C144.1 119.772 143.736 119.212 143.566 118.496L143.527 118.34H136.809L136.828 118.516C136.984 119.896 137.466 121.107 138.273 122.148C139.081 123.19 140.214 124.004 141.672 124.59C143.13 125.163 144.914 125.449 147.023 125.449Z" fill="black"/>
</svg>
